<svg xmlns="http://www.w3.org/2000/svg" width="42" height="40" viewBox="0 0 41.624 39.9063" fill="none">
  <path d="M38.4724 3.52214C36.3452 1.29948 33.5195 0.171911 30.683 0.13604C30.6525 0.135363 30.6221 0.135363 30.5916 0.135363C30.5347 0.135363 30.4779 0.13604 30.4217 0.136716C28.6505 0.157021 26.8833 0.603041 25.2874 1.47681C24.9064 1.68527 24.5355 1.91809 24.1761 2.17528C23.6915 2.52113 23.2292 2.91233 22.7947 3.34685C22.4299 3.71165 22.0955 4.09675 21.7923 4.49743C21.7382 4.56917 21.6854 4.64091 21.634 4.71266C20.3324 6.52381 19.6509 8.64291 19.5886 10.7769C19.5798 11.0869 19.5832 11.3989 19.6008 11.7096C19.6028 11.7454 19.6042 11.7827 19.6069 11.8178C19.6509 12.4953 19.7578 13.1701 19.9277 13.832C20.1355 14.6435 20.4387 15.4368 20.8353 16.1935C20.8116 16.2462 20.7866 16.2977 20.7615 16.3491C20.1781 17.5234 19.1345 18.429 17.8675 18.8296C17.6191 18.9088 17.3619 18.9677 17.0973 19.0056C16.3501 17.8286 15.8262 16.5501 15.525 15.231C15.4472 14.8974 15.3843 14.5583 15.3362 14.2205C15.0736 12.3755 15.2347 10.4825 15.8201 8.69841C15.8235 8.68623 15.8276 8.67472 15.831 8.66322C15.833 8.65848 15.8269 8.65442 15.8222 8.65713C15.5061 8.91229 15.2002 9.18707 14.9064 9.48149L14.8651 9.52277C14.8191 9.5688 14.7738 9.61617 14.7291 9.66287C14.6675 9.7204 14.6073 9.77996 14.5477 9.83952C13.3098 11.0781 12.43 12.5373 11.9081 14.0919C11.9 14.1143 11.8926 14.1353 11.8865 14.1576C11.7802 14.4791 11.6902 14.8046 11.6151 15.1329C11.5934 15.2236 11.5738 15.3156 11.5548 15.407C11.5488 15.4361 11.5433 15.4666 11.5373 15.497C11.5122 15.6249 11.4899 15.7515 11.4702 15.8801C11.3735 16.4953 11.3295 17.1187 11.3376 17.7406C11.3376 17.761 11.3383 17.7819 11.3383 17.8029C11.3389 17.8117 11.3389 17.8205 11.3389 17.8293C11.3396 17.8544 11.3403 17.8787 11.341 17.9038C11.3437 18.0039 11.3477 18.1027 11.3538 18.2029C11.3931 18.917 11.5021 19.6276 11.6801 20.3247C11.6889 20.3613 11.699 20.3971 11.7085 20.4323C11.8445 20.9413 12.0178 21.4421 12.2283 21.9315C12.4618 22.475 12.7427 23.0042 13.0682 23.5112C13.1724 23.6729 13.2814 23.834 13.3951 23.9903C13.5129 24.1548 13.6361 24.3159 13.764 24.4743C13.812 24.5338 13.8608 24.5934 13.9108 24.6523L13.9535 24.703C13.9535 24.703 13.9582 24.7084 13.9616 24.7112C14.0252 24.7863 14.0902 24.8601 14.1565 24.9331C14.2046 24.9873 14.254 25.0401 14.3034 25.0929C14.3833 25.1782 14.4645 25.2628 14.5477 25.346C14.6296 25.4272 14.7081 25.5118 14.7826 25.5978C14.922 25.7589 15.0486 25.9254 15.1629 26.0979C15.1846 26.1291 15.2056 26.1616 15.2266 26.1947C15.2279 26.1968 15.2293 26.1995 15.2306 26.2015C15.3802 26.4384 15.5061 26.6854 15.6103 26.9399C15.6502 27.0367 15.6875 27.1362 15.7213 27.2357C16.1382 28.4783 16.0414 29.857 15.4289 31.036C15.2557 31.371 15.0391 31.6911 14.7826 31.9855C14.7074 32.0715 14.6296 32.1554 14.5477 32.2373C14.2418 32.5439 13.9041 32.8011 13.546 33.0089C13.1839 33.2187 12.8015 33.3784 12.4063 33.4874C11.4696 33.7473 10.4699 33.7209 9.54606 33.4102C9.18464 33.2891 8.83541 33.1246 8.5058 32.9162C8.20394 32.7267 7.91833 32.4993 7.6564 32.2373C7.3938 31.9747 7.16706 31.6898 6.97755 31.3886C6.7691 31.0583 6.60395 30.7084 6.48348 30.3477C6.17282 29.4238 6.14643 28.4248 6.40565 27.4874C6.46182 27.2878 6.53018 27.0908 6.61072 26.8979C7.07231 25.8008 6.84693 24.5365 6.00565 23.6953L3.34916 21.0388C2.6385 21.7636 2.04561 22.5623 1.57184 23.4083C1.26931 23.9477 1.01482 24.5068 0.808396 25.0787C0.36779 26.2963 0.143765 27.5734 0.135643 28.8465C0.116692 31.5382 1.05949 34.2123 2.94984 36.2752C5.0466 38.5649 8.00767 39.7716 11.0215 39.7709C12.8015 39.7709 14.5992 39.3506 16.2486 38.4836C17.743 37.6803 19.0634 36.4864 20.0407 35.1118C20.0529 35.0942 20.0658 35.0772 20.0773 35.0596C21.3294 33.2783 22.0637 31.107 22.0637 28.7646C22.0637 27.0888 21.6881 25.501 21.016 24.081C22.0482 23.587 22.991 22.9372 23.814 22.1609C24.04 21.9484 24.2573 21.7251 24.4644 21.4929C24.4894 21.4658 24.5138 21.4388 24.5375 21.4117C24.5808 21.3623 24.6248 21.3122 24.6674 21.2621C25.3152 22.3538 25.7767 23.5261 26.0529 24.7321C26.13 25.0672 26.193 25.4049 26.241 25.744C26.505 27.5998 26.3405 29.5057 25.7463 31.2999C25.7449 31.3054 25.751 31.3094 25.7551 31.306C26.0712 31.0509 26.3771 30.7768 26.6715 30.4823C26.731 30.4221 26.7906 30.3612 26.8481 30.301C26.9097 30.2428 26.97 30.1832 27.0302 30.1236C28.2688 28.8857 29.1473 27.4259 29.6698 25.8719C29.6772 25.8502 29.6853 25.8279 29.6914 25.8062C29.8268 25.3954 29.9364 24.9778 30.0224 24.5575C30.0285 24.5271 30.0339 24.4973 30.0407 24.4661C30.0657 24.3389 30.0874 24.2117 30.1077 24.0837C30.2045 23.4678 30.2485 22.8452 30.2397 22.2239C30.2403 22.1934 30.239 22.1636 30.2383 22.1345C30.2383 22.1095 30.2376 22.0844 30.2363 22.0594V22.058C30.2336 21.9586 30.2295 21.8597 30.2234 21.7616C30.2133 21.5646 30.197 21.3697 30.1754 21.1734C30.1435 20.8777 30.0989 20.5833 30.0427 20.2889C30.0007 20.0709 29.9527 19.855 29.8972 19.6391C29.8884 19.6032 29.8789 19.5667 29.8688 19.5308C29.7334 19.0219 29.5601 18.5217 29.349 18.0317C29.1155 17.4882 28.8353 16.9589 28.509 16.452C28.4048 16.2902 28.2965 16.1298 28.1821 15.9728C28.065 15.809 27.9419 15.6479 27.8133 15.4902C27.7524 15.4124 27.6881 15.3373 27.6238 15.2615C27.5114 15.1288 27.395 14.9982 27.2745 14.871C27.263 14.8581 27.2508 14.8452 27.2393 14.8337C27.1703 14.76 27.1006 14.6896 27.0295 14.6178C26.9476 14.5366 26.8698 14.4513 26.7947 14.3654C26.6559 14.205 26.5294 14.0385 26.4143 13.8666C26.3926 13.8341 26.3717 13.8016 26.3514 13.7684C26.3419 13.7535 26.3331 13.7386 26.3243 13.7238C26.128 13.407 25.9723 13.0727 25.8566 12.7275C25.439 11.4849 25.5365 10.1069 26.149 8.92718C26.373 8.49469 26.6674 8.0886 27.0302 7.72583C27.3138 7.44225 27.6231 7.2013 27.9513 7.00299C28.3365 6.76882 28.7473 6.59352 29.1716 6.47643C29.4904 6.38845 29.816 6.33295 30.1435 6.31061C30.7791 6.2673 31.422 6.34851 32.0312 6.55291C32.3926 6.67406 32.7425 6.83853 33.0721 7.04766C33.374 7.23717 33.6589 7.4639 33.9215 7.72583C34.1834 7.98844 34.4109 8.27337 34.5997 8.57591C34.8095 8.90552 34.9733 9.25475 35.0944 9.61617C35.4051 10.54 35.4308 11.5397 35.1709 12.4757C35.1154 12.676 35.0477 12.873 34.9665 13.0652C34.9015 13.2195 34.8501 13.3772 34.8122 13.5363C34.5807 14.5095 34.8494 15.5451 35.5716 16.2679C36.0196 16.7139 36.4677 17.1606 36.9151 17.6066C37.3543 18.0445 37.7936 18.4824 38.2328 18.9203C38.9753 18.1779 39.5919 17.3549 40.0812 16.4777H40.0819C42.3776 12.364 41.8788 7.08015 38.4724 3.52214Z" fill="#B8B8B8" stroke="black" stroke-width="0.270726"/>
  <path d="M30.1077 24.0837C30.0874 24.2117 30.0657 24.3389 30.0407 24.4661C30.0339 24.4973 30.0285 24.5271 30.0224 24.5575C29.9364 24.9778 29.8268 25.3954 29.6914 25.8062C29.6853 25.8279 29.6772 25.8502 29.6698 25.8719C29.1473 27.4259 28.2688 28.8857 27.0302 30.1236C26.97 30.1832 26.9097 30.2428 26.8481 30.301C26.7906 30.3612 26.731 30.4221 26.6715 30.4823C26.3771 30.7768 26.0712 31.0509 25.7551 31.306C25.751 31.3094 25.7449 31.3054 25.7463 31.2999C26.3405 29.5057 26.505 27.5998 26.241 25.744C26.193 25.4049 26.13 25.0672 26.0529 24.7321C25.7767 23.5261 25.3152 22.3538 24.6674 21.2621C24.6248 21.3122 24.5808 21.3623 24.5375 21.4117C24.5138 21.4388 24.4894 21.4658 24.4644 21.4929C24.2573 21.725 24.04 21.9484 23.814 22.1609C22.991 22.9372 22.0482 23.587 21.016 24.081C21.6881 25.501 22.0637 27.0888 22.0637 28.7646C22.0637 31.107 21.3294 33.2783 20.0773 35.0596C20.0658 35.0772 20.0529 35.0942 20.0407 35.1118C19.0634 36.4864 17.743 37.6803 16.2485 38.4836C17.1155 37.0677 17.6847 35.3744 17.7836 33.6167C17.7869 33.5591 17.7897 33.5016 17.7917 33.4441C17.7971 33.3067 17.7998 33.1679 17.7998 33.0285C17.7998 32.9757 17.7991 32.9236 17.7985 32.8715C17.7978 32.8214 17.7971 32.772 17.7951 32.7226C17.7944 32.6827 17.793 32.6427 17.791 32.6035C17.789 32.55 17.7863 32.4965 17.7829 32.4431C17.7781 32.3456 17.7714 32.2482 17.7626 32.152C17.7585 32.0945 17.7531 32.0377 17.747 31.9808C17.7382 31.8921 17.7281 31.8035 17.7166 31.7155C17.7078 31.6431 17.6983 31.5713 17.6868 31.4989C17.678 31.4373 17.6685 31.3757 17.6577 31.3142C17.6563 31.3013 17.6543 31.2884 17.6516 31.2756C17.6435 31.2248 17.634 31.1747 17.6238 31.1246C17.6211 31.1023 17.6164 31.0806 17.6117 31.0583C17.6008 30.9994 17.5893 30.9405 17.5765 30.8817C17.5751 30.8729 17.5731 30.8641 17.571 30.8553C17.5568 30.7862 17.5413 30.7179 17.525 30.6502C17.525 30.6495 17.525 30.6482 17.5243 30.6475C17.5088 30.5798 17.4919 30.5121 17.4743 30.4451C17.4743 30.4424 17.4736 30.4397 17.4722 30.4377C17.4587 30.3822 17.4438 30.3274 17.4282 30.2725C17.4228 30.2516 17.4174 30.2306 17.4106 30.2096C17.3991 30.1656 17.3863 30.1216 17.3727 30.0783C17.366 30.0539 17.3585 30.0296 17.3511 30.0052C17.3369 29.9578 17.322 29.9104 17.3064 29.8637C17.3003 29.8434 17.2942 29.8231 17.2868 29.8028C17.2719 29.7548 17.2556 29.7067 17.2387 29.6593C17.232 29.6384 17.2245 29.6174 17.2171 29.5964C17.2035 29.5571 17.19 29.5179 17.1751 29.4793C17.1582 29.4319 17.1413 29.3852 17.123 29.3392C17.1216 29.3358 17.1203 29.3318 17.1189 29.3284C17.0979 29.2722 17.0756 29.2167 17.0533 29.1612C17.0438 29.1375 17.0343 29.1132 17.0242 29.0895C17.0045 29.0414 16.9842 28.9934 16.9633 28.9453C16.9599 28.9358 16.9558 28.9264 16.9511 28.9169C16.9308 28.8681 16.9091 28.8194 16.8868 28.7714C16.8739 28.7409 16.8597 28.7111 16.8455 28.6807C16.8191 28.6231 16.792 28.5656 16.7636 28.5088C16.7447 28.4681 16.725 28.4282 16.7047 28.3883C16.6905 28.3599 16.6763 28.3314 16.6614 28.303C16.6438 28.2685 16.6262 28.234 16.6073 28.2001C16.5924 28.171 16.5768 28.1412 16.5606 28.1121C16.5457 28.0844 16.5301 28.056 16.5145 28.0282C16.4956 27.9937 16.4766 27.9592 16.457 27.9247C16.436 27.8874 16.4144 27.8495 16.392 27.8123C16.3812 27.7934 16.3697 27.7744 16.3582 27.7548C16.3372 27.7196 16.3162 27.6844 16.2946 27.6492C16.2736 27.6147 16.2526 27.5802 16.231 27.5463C16.2249 27.5355 16.2181 27.5253 16.2113 27.5152C16.1795 27.4638 16.147 27.4137 16.1139 27.3636C16.08 27.3108 16.0448 27.2587 16.0096 27.2066C15.9792 27.1619 15.948 27.1165 15.9162 27.0726C15.7863 26.8871 15.6496 26.7064 15.5074 26.5304C15.4628 26.4749 15.4167 26.4194 15.3707 26.3646C15.3247 26.3098 15.278 26.2556 15.2306 26.2015C15.2293 26.1995 15.2279 26.1968 15.2266 26.1947C15.2056 26.1616 15.1846 26.1291 15.1629 26.0979C15.0486 25.9254 14.922 25.7589 14.7826 25.5978C14.7081 25.5118 14.6296 25.4272 14.5477 25.346C14.4645 25.2628 14.3832 25.1782 14.3034 25.0929C14.254 25.0401 14.2046 24.9873 14.1565 24.9331C14.0902 24.8601 14.0252 24.7863 13.9616 24.7112C13.9582 24.7084 13.9562 24.7051 13.9535 24.703L13.9108 24.6523C13.8607 24.5934 13.812 24.5338 13.764 24.4743C13.636 24.3159 13.5129 24.1548 13.3951 23.9903C13.2814 23.834 13.1724 23.6729 13.0682 23.5112C12.7427 23.0042 12.4618 22.475 12.2283 21.9315C12.0178 21.4421 11.8445 20.9413 11.7085 20.4323C11.699 20.3971 11.6889 20.3613 11.6801 20.3247C11.5021 19.6276 11.3931 18.9169 11.3538 18.2029C11.3477 18.1027 11.3437 18.0039 11.341 17.9038C11.3403 17.8787 11.3396 17.8544 11.3389 17.8293C11.3389 17.8205 11.3389 17.8117 11.3383 17.8029C11.3383 17.7819 11.3376 17.761 11.3376 17.7406C11.3295 17.1187 11.3735 16.4953 11.4702 15.8801C11.4899 15.7515 11.5122 15.6249 11.5372 15.497C11.5433 15.4666 11.5488 15.4361 11.5548 15.407C11.5738 15.3156 11.5934 15.2236 11.6151 15.1329C11.6902 14.8046 11.7802 14.4791 11.8865 14.1576C11.8926 14.1353 11.9 14.1143 11.9081 14.0919C12.43 12.5373 13.3098 11.0781 14.5477 9.83952C14.6073 9.77996 14.6675 9.7204 14.7291 9.66287C14.7738 9.61617 14.8191 9.56879 14.8651 9.52277L14.9064 9.48149C15.2002 9.18707 15.5061 8.91229 15.8222 8.65713C15.8269 8.65442 15.833 8.65848 15.831 8.66322C15.8276 8.67472 15.8235 8.68623 15.8201 8.69841C15.2347 10.4825 15.0736 12.3755 15.3362 14.2205C15.3843 14.5583 15.4472 14.8974 15.525 15.231C15.8262 16.5501 16.3501 17.8286 17.0973 19.0056C17.3619 18.9677 17.6191 18.9088 17.8675 18.8296C19.1345 18.429 20.1781 17.5234 20.7615 16.3491C20.7866 16.2977 20.8116 16.2462 20.8353 16.1935C20.4387 15.4368 20.1355 14.6435 19.9277 13.832C19.7578 13.1701 19.6509 12.4953 19.6069 11.8178C19.6042 11.7827 19.6028 11.7454 19.6008 11.7096C19.5832 11.3989 19.5798 11.0869 19.5886 10.7769C19.6509 8.64291 20.3324 6.52381 21.634 4.71265C21.6854 4.64091 21.7382 4.56917 21.7923 4.49743C22.0955 4.09675 22.4299 3.71165 22.7947 3.34684C23.2292 2.91233 23.6915 2.52113 24.1761 2.17528C24.5355 1.91809 24.9064 1.68527 25.2874 1.47681C25.2813 1.48831 25.2745 1.5005 25.2678 1.512C24.3906 3.0883 23.8911 4.90352 23.8911 6.83582C23.8911 9.44494 24.8021 11.8415 26.3243 13.7238C26.3331 13.7386 26.3419 13.7535 26.3513 13.7684C26.3717 13.8016 26.3926 13.8341 26.4143 13.8666C26.5294 14.0385 26.6559 14.205 26.7947 14.3654C26.8698 14.4513 26.9476 14.5366 27.0295 14.6178C27.1006 14.6896 27.1703 14.76 27.2393 14.8337C27.2508 14.8452 27.263 14.8581 27.2745 14.871C27.395 14.9982 27.5114 15.1288 27.6238 15.2615C27.6881 15.3373 27.7524 15.4124 27.8133 15.4902C27.9419 15.6479 28.065 15.809 28.1821 15.9728C28.2965 16.1298 28.4048 16.2902 28.509 16.452C28.8353 16.9589 29.1155 17.4882 29.349 18.0317C29.5601 18.5217 29.7334 19.0219 29.8688 19.5308C29.8789 19.5667 29.8884 19.6032 29.8972 19.6391C29.9527 19.855 30.0007 20.0709 30.0427 20.2888C30.0989 20.5833 30.1435 20.8777 30.1753 21.1734C30.197 21.3697 30.2132 21.5646 30.2234 21.7616C30.2295 21.8597 30.2336 21.9586 30.2363 22.058V22.0594C30.2376 22.0844 30.2383 22.1095 30.2383 22.1345C30.239 22.1636 30.2403 22.1934 30.2396 22.2239C30.2484 22.8452 30.2045 23.4678 30.1077 24.0837Z" fill="#F2F2F2" stroke="black" stroke-width="0.270726"/>
  <path d="M40.0819 16.477H40.0812C39.5919 17.3549 38.9753 18.1779 38.2328 18.9203C37.7936 18.4824 37.3543 18.0445 36.9151 17.6066C36.4677 17.1606 36.0196 16.7139 35.5716 16.2679C34.8494 15.5451 34.5807 14.5095 34.8122 13.5363C34.8501 13.3772 34.9015 13.2195 34.9665 13.0652C35.0477 12.873 35.1154 12.676 35.1709 12.4757C35.4308 11.5397 35.4051 10.54 35.0944 9.61617C34.9733 9.25475 34.8095 8.90552 34.5997 8.57591C34.4108 8.27337 34.1834 7.98844 33.9215 7.72583C33.6589 7.4639 33.374 7.23717 33.0721 7.04766C32.7425 6.83853 32.3926 6.67406 32.0312 6.55291C31.422 6.34851 30.7791 6.2673 30.1435 6.31061C29.816 6.33295 29.4904 6.38845 29.1716 6.47643C28.7473 6.59352 28.3364 6.76882 27.9513 7.00299C27.6231 7.2013 27.3138 7.44225 27.0302 7.72583C26.6674 8.0886 26.373 8.49469 26.149 8.92718C25.5365 10.1069 25.439 11.4849 25.8566 12.7275C25.9723 13.0727 26.128 13.407 26.3243 13.7238C24.8021 11.8415 23.8911 9.44494 23.8911 6.83582C23.8911 4.90352 24.3906 3.0883 25.2678 1.512C25.2745 1.5005 25.2813 1.48831 25.2874 1.47681C26.8833 0.603041 28.6505 0.157021 30.4217 0.136716C30.4779 0.136716 30.5347 0.135363 30.5916 0.135363C30.622 0.135363 30.6525 0.135363 30.683 0.13604C33.5195 0.171911 36.3452 1.29948 38.4724 3.52214C41.8788 7.08015 42.3776 12.364 40.0819 16.477Z" fill="url(#sp_favicon_0)" stroke="black" stroke-width="0.270726"/>
  <path d="M17.7998 33.0285C17.7998 33.1679 17.7971 33.3067 17.7917 33.4441C17.7897 33.5016 17.787 33.5591 17.7836 33.6167C17.6834 35.3967 17.1352 37.0556 16.2486 38.4836C14.5992 39.3506 12.8015 39.7709 11.0215 39.7709C8.00767 39.7716 5.0466 38.5649 2.94984 36.2752C1.05949 34.2123 0.116692 31.5382 0.135643 28.8465C0.143765 27.5734 0.36779 26.2962 0.808396 25.0787C1.01482 24.5068 1.26931 23.9477 1.57184 23.4083C2.04561 22.5623 2.6385 21.7636 3.34916 21.0388L6.00565 23.6953C6.84693 24.5365 7.07231 25.8008 6.61072 26.8979C6.53018 27.0908 6.46182 27.2878 6.40565 27.4874C6.14643 28.4248 6.17282 29.4238 6.48348 30.3477C6.60395 30.7084 6.7691 31.0583 6.97755 31.3886C7.16706 31.6898 7.3938 31.9747 7.6564 32.2373C7.91833 32.4992 8.20394 32.7267 8.5058 32.9162C8.83541 33.1246 9.18464 33.2891 9.54606 33.4102C10.4699 33.7209 11.4696 33.7473 12.4063 33.4874C12.8015 33.3784 13.1839 33.2187 13.546 33.0089C13.9041 32.8011 14.2418 32.5439 14.5477 32.2373C14.6296 32.1554 14.7074 32.0715 14.7826 31.9855C15.0391 31.6911 15.2557 31.371 15.4289 31.036C16.0414 29.857 16.1382 28.4783 15.7213 27.2357C15.6875 27.1362 15.6502 27.0367 15.6103 26.9399C15.5061 26.6854 15.3802 26.4384 15.2306 26.2015C15.278 26.2556 15.3247 26.3098 15.3707 26.3646C15.4167 26.4194 15.4628 26.4749 15.5074 26.5304C15.6496 26.7064 15.7863 26.8871 15.9162 27.0726C15.948 27.1172 15.9792 27.1619 16.0096 27.2066C16.0448 27.2587 16.08 27.3108 16.1139 27.3636C16.147 27.4137 16.1795 27.4644 16.2113 27.5152C16.2181 27.5253 16.2249 27.5355 16.231 27.5463C16.2526 27.5802 16.2736 27.6147 16.2946 27.6492C16.3162 27.6844 16.3372 27.7196 16.3582 27.7548C16.3697 27.7744 16.3812 27.7934 16.392 27.8123C16.4144 27.8495 16.4354 27.8868 16.457 27.9247C16.4766 27.9592 16.4956 27.9937 16.5145 28.0282C16.5301 28.056 16.5457 28.0844 16.5606 28.1121C16.5768 28.1412 16.5924 28.1703 16.6073 28.2001C16.6262 28.2346 16.6438 28.2685 16.6614 28.303C16.6763 28.3314 16.6905 28.3599 16.7047 28.3883C16.725 28.4282 16.7447 28.4681 16.7636 28.5088C16.792 28.5656 16.8191 28.6231 16.8455 28.6807C16.8597 28.7104 16.8739 28.7409 16.8868 28.7714C16.9091 28.8194 16.9308 28.8681 16.9511 28.9169C16.9558 28.9263 16.9599 28.9358 16.9633 28.9453C16.9842 28.9927 17.0046 29.0407 17.0242 29.0895C17.0343 29.1131 17.0438 29.1375 17.0533 29.1612C17.0756 29.2167 17.098 29.2722 17.1189 29.3284C17.1203 29.3318 17.1216 29.3358 17.123 29.3392C17.1413 29.3852 17.1582 29.4319 17.1751 29.4793C17.1893 29.5179 17.2035 29.5571 17.2171 29.5964C17.2245 29.6174 17.232 29.6384 17.2387 29.6593C17.2557 29.7067 17.2719 29.7548 17.2868 29.8028C17.2942 29.8231 17.3003 29.8434 17.3064 29.8637C17.322 29.9104 17.3369 29.9578 17.3511 30.0052C17.3585 30.0296 17.366 30.0539 17.3727 30.0783C17.3863 30.1216 17.3985 30.1656 17.4106 30.2096C17.4174 30.2306 17.4228 30.2515 17.4282 30.2725C17.4438 30.3273 17.4587 30.3822 17.4722 30.4377C17.4736 30.4397 17.4743 30.4424 17.4743 30.4451C17.4919 30.5121 17.5081 30.5798 17.5243 30.6475C17.525 30.6475 17.525 30.6495 17.525 30.6502C17.5413 30.7185 17.5562 30.7869 17.571 30.8553C17.5731 30.8641 17.5751 30.8729 17.5765 30.8817C17.5886 30.9405 17.6008 30.9994 17.6117 31.0583C17.6164 31.0806 17.6211 31.1023 17.6238 31.1246C17.634 31.1747 17.6428 31.2255 17.6516 31.2756C17.6543 31.2884 17.6563 31.3013 17.6577 31.3141C17.6685 31.3757 17.678 31.4373 17.6868 31.4989C17.6976 31.5707 17.7078 31.6431 17.7166 31.7155C17.7281 31.8035 17.7382 31.8921 17.747 31.9808C17.7531 32.0377 17.7585 32.0945 17.7626 32.152C17.7687 32.2258 17.7741 32.2989 17.7788 32.3727C17.7802 32.3964 17.7815 32.4194 17.7829 32.4431C17.7863 32.4965 17.789 32.55 17.791 32.6035C17.793 32.6427 17.7944 32.6827 17.7951 32.7226C17.7971 32.772 17.7978 32.8214 17.7985 32.8715C17.7991 32.9236 17.7998 32.9757 17.7998 33.0285Z" fill="url(#sp_favicon_1)" stroke="black" stroke-width="0.270726"/>
  <defs>
    <linearGradient id="sp_favicon_0" x1="27.0728" y1="15.1449" x2="39.4089" y2="2.80878" gradientUnits="userSpaceOnUse">
      <stop stop-color="#D2D2D2"/>
      <stop offset="1" stop-color="white"/>
    </linearGradient>
    <linearGradient id="sp_favicon_1" x1="3.32917" y1="36.0061" x2="15.6303" y2="23.6233" gradientUnits="userSpaceOnUse">
      <stop stop-color="white"/>
      <stop offset="1" stop-color="#D2D2D2"/>
    </linearGradient>
  </defs>
</svg>
