<svg width="42" height="40" viewBox="0 0 42 40" fill="none" xmlns="http://www.w3.org/2000/svg">
<g clip-path="url(#clip0_47_545)">
<path d="M38.5402 3.48736C36.413 1.26471 33.5873 0.137134 30.7507 0.101263C30.7203 0.100586 30.6898 0.100586 30.6594 0.100586C30.6025 0.100586 30.5457 0.101263 30.4895 0.10194C28.7183 0.122244 26.9511 0.568264 25.3552 1.44203C24.9741 1.65049 24.6032 1.88331 24.2438 2.1405C23.7592 2.48636 23.297 2.87755 22.8625 3.31207C22.4977 3.67687 22.1633 4.06198 21.8601 4.46265C21.806 4.53439 21.7532 4.60614 21.7017 4.67788C20.4002 6.48903 19.7187 8.60814 19.6564 10.7421C19.6476 11.0521 19.651 11.3641 19.6686 11.6748C19.6706 11.7107 19.672 11.7479 19.6747 11.7831C19.7187 12.4606 19.8256 13.1353 19.9955 13.7973C20.2033 14.6088 20.5065 15.402 20.9031 16.1587C20.8794 16.2115 20.8544 16.2629 20.8293 16.3143C20.2459 17.4886 19.2022 18.3942 17.9353 18.7949C17.6869 18.8741 17.4297 18.9329 17.165 18.9708C16.4178 17.7939 15.894 16.5154 15.5928 15.1962C15.515 14.8626 15.452 14.5235 15.404 14.1858C15.1414 12.3408 15.3024 10.4477 15.8879 8.66364C15.8913 8.65145 15.8953 8.63995 15.8987 8.62844C15.9008 8.6237 15.8947 8.61964 15.8899 8.62235C15.5738 8.87751 15.2679 9.1523 14.9742 9.44671L14.9329 9.488C14.8869 9.53402 14.8415 9.5814 14.7969 9.6281C14.7353 9.68563 14.675 9.74518 14.6155 9.80474C13.3776 11.0433 12.4977 12.5025 11.9759 14.0572C11.9678 14.0795 11.9603 14.1005 11.9542 14.1228C11.848 14.4443 11.758 14.7699 11.6828 15.0981C11.6612 15.1888 11.6416 15.2808 11.6226 15.3722C11.6165 15.4013 11.6111 15.4318 11.605 15.4622C11.58 15.5901 11.5576 15.7167 11.538 15.8453C11.4412 16.4605 11.3972 17.0839 11.4054 17.7059C11.4054 17.7262 11.406 17.7472 11.406 17.7681C11.4067 17.7769 11.4067 17.7857 11.4067 17.7945C11.4074 17.8196 11.4081 17.8439 11.4087 17.869C11.4114 17.9692 11.4155 18.068 11.4216 18.1681C11.4609 18.8822 11.5698 19.5928 11.7478 20.2899C11.7566 20.3265 11.7668 20.3624 11.7762 20.3976C11.9123 20.9065 12.0856 21.4074 12.296 21.8967C12.5295 22.4402 12.8104 22.9695 13.136 23.4764C13.2402 23.6381 13.3492 23.7992 13.4629 23.9556C13.5806 24.12 13.7038 24.2811 13.8317 24.4395C13.8798 24.4991 13.9285 24.5586 13.9786 24.6175L14.0212 24.6683C14.0212 24.6683 14.026 24.6737 14.0294 24.6764C14.093 24.7515 14.158 24.8253 14.2243 24.8984C14.2723 24.9525 14.3217 25.0053 14.3712 25.0581C14.451 25.1434 14.5322 25.228 14.6155 25.3112C14.6974 25.3924 14.7759 25.477 14.8503 25.563C14.9898 25.7241 15.1163 25.8906 15.2307 26.0632C15.2524 26.0943 15.2733 26.1268 15.2943 26.16C15.2957 26.162 15.297 26.1647 15.2984 26.1667C15.448 26.4036 15.5738 26.6506 15.6781 26.9051C15.718 27.0019 15.7552 27.1014 15.7891 27.2009C16.206 28.4435 16.1092 29.8222 15.4967 31.0012C15.3234 31.3362 15.1068 31.6564 14.8503 31.9508C14.7752 32.0367 14.6974 32.1207 14.6155 32.2025C14.3096 32.5091 13.9718 32.7663 13.6138 32.9741C13.2517 33.1839 12.8693 33.3437 12.474 33.4526C11.5373 33.7125 10.5377 33.6861 9.61383 33.3755C9.25241 33.2543 8.90317 33.0899 8.57356 32.8814C8.2717 32.6919 7.98609 32.4645 7.72416 32.2025C7.46156 31.9399 7.23482 31.655 7.04532 31.3538C6.83686 31.0235 6.67172 30.6736 6.55124 30.3129C6.24059 29.389 6.21419 28.3901 6.47341 27.4527C6.52958 27.253 6.59794 27.0561 6.67848 26.8632C7.14007 25.766 6.91469 24.5018 6.07341 23.6605L3.41692 21.004C2.70626 21.7289 2.11337 22.5275 1.6396 23.3735C1.33707 23.9129 1.08259 24.472 0.876158 25.0439C0.435552 26.2615 0.211527 27.5386 0.203405 28.8117C0.184454 31.5034 1.12726 34.1775 3.0176 36.2404C5.11437 38.5301 8.07543 39.7368 11.0893 39.7362C12.8693 39.7362 14.6669 39.3159 16.3163 38.4489C17.8107 37.6455 19.1312 36.4516 20.1085 35.077C20.1207 35.0594 20.1335 35.0425 20.1451 35.0249C21.3972 33.2435 22.1315 31.0723 22.1315 28.7298C22.1315 27.054 21.7559 25.4662 21.0838 24.0463C22.1159 23.5522 23.0587 22.9024 23.8817 22.1261C24.1078 21.9136 24.3251 21.6903 24.5322 21.4581C24.5572 21.4311 24.5816 21.404 24.6053 21.3769C24.6486 21.3275 24.6926 21.2774 24.7352 21.2273C25.3829 22.319 25.8445 23.4913 26.1206 24.6974C26.1978 25.0324 26.2607 25.3701 26.3088 25.7092C26.5728 27.565 26.4083 29.4709 25.814 31.2652C25.8127 31.2706 25.8188 31.2746 25.8228 31.2713C26.1389 31.0161 26.4448 30.742 26.7393 30.4476C26.7988 30.3873 26.8584 30.3264 26.9159 30.2662C26.9775 30.208 27.0377 30.1484 27.098 30.0889C28.3365 28.851 29.215 27.3911 29.7375 25.8371C29.745 25.8155 29.7531 25.7931 29.7592 25.7715C29.8946 25.3606 30.0042 24.943 30.0902 24.5227C30.0962 24.4923 30.1017 24.4625 30.1084 24.4314C30.1335 24.3041 30.1551 24.1769 30.1754 24.049C30.2722 23.4331 30.3162 22.8104 30.3074 22.1891C30.3081 22.1586 30.3067 22.1289 30.3061 22.0997C30.3061 22.0747 30.3054 22.0497 30.304 22.0246V22.0233C30.3013 21.9238 30.2973 21.825 30.2912 21.7268C30.281 21.5299 30.2648 21.3349 30.2431 21.1387C30.2113 20.8429 30.1666 20.5485 30.1105 20.2541C30.0685 20.0361 30.0204 19.8202 29.9649 19.6043C29.9561 19.5685 29.9467 19.5319 29.9365 19.496C29.8012 18.9871 29.6279 18.4869 29.4167 17.9969C29.1832 17.4534 28.903 16.9242 28.5768 16.4172C28.4726 16.2555 28.3643 16.0951 28.2499 15.938C28.1328 15.7742 28.0096 15.6132 27.881 15.4555C27.8201 15.3776 27.7558 15.3025 27.6915 15.2267C27.5792 15.094 27.4628 14.9634 27.3423 14.8362C27.3308 14.8233 27.3186 14.8105 27.3071 14.799C27.2381 14.7252 27.1684 14.6548 27.0973 14.5831C27.0154 14.5018 26.9376 14.4166 26.8624 14.3306C26.7237 14.1702 26.5971 14.0037 26.4821 13.8318C26.4604 13.7993 26.4394 13.7668 26.4191 13.7336C26.4096 13.7188 26.4008 13.7039 26.392 13.689C26.1958 13.3722 26.0401 13.0379 25.9244 12.6927C25.5068 11.4501 25.6042 10.0721 26.2168 8.8924C26.4408 8.45991 26.7352 8.05383 27.098 7.69105C27.3815 7.40747 27.6909 7.16652 28.0191 6.96822C28.4042 6.73404 28.815 6.55874 29.2394 6.44166C29.5582 6.35367 29.8837 6.29817 30.2113 6.27584C30.8468 6.23252 31.4898 6.31374 32.0989 6.51814C32.4604 6.63929 32.8103 6.80375 33.1399 7.01289C33.4417 7.20239 33.7267 7.42913 33.9893 7.69105C34.2512 7.95366 34.4786 8.2386 34.6674 8.54113C34.8773 8.87074 35.041 9.21998 35.1622 9.5814C35.4729 10.5052 35.4986 11.5049 35.2387 12.4409C35.1832 12.6413 35.1155 12.8382 35.0343 13.0304C34.9693 13.1848 34.9179 13.3425 34.88 13.5015C34.6485 14.4748 34.9172 15.5103 35.6394 16.2331C36.0874 16.6791 36.5355 17.1258 36.9828 17.5719C37.4221 18.0098 37.8613 18.4477 38.3006 18.8856C39.0431 18.1431 39.6596 17.3201 40.149 16.4429H40.1496C42.4454 12.3293 41.9466 7.04537 38.5402 3.48736Z" fill="#B8B8B8" stroke="white" stroke-width="0.270726"/>
<path d="M30.1753 24.0493C30.155 24.1772 30.1334 24.3045 30.1083 24.4317C30.1016 24.4629 30.0961 24.4926 30.09 24.5231C30.0041 24.9434 29.8944 25.361 29.7591 25.7718C29.753 25.7935 29.7449 25.8158 29.7374 25.8375C29.2149 27.3914 28.3364 28.8513 27.0979 30.0892C27.0376 30.1488 26.9774 30.2083 26.9158 30.2665C26.8583 30.3268 26.7987 30.3877 26.7391 30.4479C26.4447 30.7423 26.1388 31.0164 25.8227 31.2716C25.8187 31.275 25.8126 31.2709 25.8139 31.2655C26.4082 29.4713 26.5726 27.5654 26.3087 25.7095C26.2606 25.3705 26.1977 25.0327 26.1205 24.6977C25.8444 23.4916 25.3828 22.3194 24.7351 21.2277C24.6925 21.2778 24.6485 21.3279 24.6051 21.3773C24.5815 21.4043 24.5571 21.4314 24.5321 21.4585C24.3249 21.6906 24.1077 21.914 23.8816 22.1265C23.0586 22.9028 22.1158 23.5525 21.0837 24.0466C21.7558 25.4666 22.1314 27.0544 22.1314 28.7302C22.1314 31.0726 21.3971 33.2438 20.1449 35.0252C20.1334 35.0428 20.1206 35.0597 20.1084 35.0773C19.1311 36.4519 17.8106 37.6458 16.3162 38.4492C17.1832 37.0333 17.7524 35.3399 17.8512 33.5822C17.8546 33.5247 17.8573 33.4672 17.8593 33.4097C17.8648 33.2723 17.8675 33.1335 17.8675 32.9941C17.8675 32.9413 17.8668 32.8892 17.8661 32.8371C17.8654 32.787 17.8648 32.7376 17.8627 32.6882C17.8621 32.6482 17.8607 32.6083 17.8587 32.5691C17.8566 32.5156 17.8539 32.4621 17.8505 32.4087C17.8458 32.3112 17.839 32.2137 17.8302 32.1176C17.8262 32.0601 17.8208 32.0032 17.8147 31.9464C17.8059 31.8577 17.7957 31.7691 17.7842 31.6811C17.7754 31.6087 17.7659 31.5369 17.7544 31.4645C17.7456 31.4029 17.7362 31.3413 17.7253 31.2797C17.724 31.2669 17.722 31.254 17.7192 31.2411C17.7111 31.1904 17.7016 31.1403 17.6915 31.0902C17.6888 31.0679 17.684 31.0462 17.6793 31.0239C17.6685 30.965 17.657 30.9061 17.6441 30.8472C17.6428 30.8384 17.6407 30.8296 17.6387 30.8208C17.6245 30.7518 17.6089 30.6835 17.5927 30.6158C17.5927 30.6151 17.5927 30.6137 17.592 30.6131C17.5764 30.5454 17.5595 30.4777 17.5419 30.4107C17.5419 30.408 17.5412 30.4053 17.5399 30.4033C17.5264 30.3478 17.5115 30.2929 17.4959 30.2381C17.4905 30.2171 17.4851 30.1961 17.4783 30.1752C17.4668 30.1312 17.4539 30.0872 17.4404 30.0439C17.4336 30.0195 17.4262 29.9951 17.4187 29.9708C17.4045 29.9234 17.3896 29.876 17.3741 29.8293C17.368 29.809 17.3619 29.7887 17.3544 29.7684C17.3396 29.7203 17.3233 29.6723 17.3064 29.6249C17.2996 29.6039 17.2922 29.583 17.2847 29.562C17.2712 29.5227 17.2577 29.4835 17.2428 29.4449C17.2258 29.3975 17.2089 29.3508 17.1907 29.3048C17.1893 29.3014 17.1879 29.2973 17.1866 29.294C17.1656 29.2378 17.1433 29.1823 17.1209 29.1268C17.1115 29.1031 17.102 29.0787 17.0918 29.055C17.0722 29.007 17.0519 28.9589 17.0309 28.9109C17.0275 28.9014 17.0235 28.8919 17.0187 28.8825C16.9984 28.8337 16.9768 28.785 16.9544 28.7369C16.9416 28.7065 16.9274 28.6767 16.9132 28.6462C16.8868 28.5887 16.8597 28.5312 16.8313 28.4743C16.8123 28.4337 16.7927 28.3938 16.7724 28.3539C16.7582 28.3254 16.744 28.297 16.7291 28.2686C16.7115 28.2341 16.6939 28.1995 16.6749 28.1657C16.66 28.1366 16.6445 28.1068 16.6282 28.0777C16.6133 28.05 16.5978 28.0215 16.5822 27.9938C16.5632 27.9593 16.5443 27.9248 16.5247 27.8902C16.5037 27.853 16.482 27.8151 16.4597 27.7779C16.4489 27.7589 16.4374 27.74 16.4259 27.7204C16.4049 27.6852 16.3839 27.65 16.3622 27.6148C16.3413 27.5803 16.3203 27.5457 16.2986 27.5119C16.2925 27.5011 16.2858 27.4909 16.279 27.4808C16.2472 27.4293 16.2147 27.3792 16.1815 27.3292C16.1477 27.2764 16.1125 27.2243 16.0773 27.1721C16.0468 27.1275 16.0157 27.0821 15.9839 27.0381C15.8539 26.8527 15.7172 26.672 15.5751 26.496C15.5304 26.4405 15.4844 26.385 15.4384 26.3302C15.3924 26.2754 15.3457 26.2212 15.2983 26.1671C15.2969 26.165 15.2956 26.1623 15.2942 26.1603C15.2732 26.1271 15.2523 26.0947 15.2306 26.0635C15.1162 25.8909 14.9897 25.7244 14.8502 25.5634C14.7758 25.4774 14.6973 25.3928 14.6154 25.3116C14.5321 25.2283 14.4509 25.1437 14.371 25.0585C14.3216 25.0057 14.2722 24.9529 14.2242 24.8987C14.1578 24.8256 14.0929 24.7519 14.0293 24.6767C14.0259 24.674 14.0238 24.6706 14.0211 24.6686L13.9785 24.6178C13.9284 24.559 13.8797 24.4994 13.8316 24.4398C13.7037 24.2815 13.5805 24.1204 13.4628 23.9559C13.3491 23.7996 13.2401 23.6385 13.1359 23.4767C12.8103 22.9698 12.5294 22.4405 12.2959 21.8971C12.0854 21.4077 11.9122 20.9069 11.7761 20.3979C11.7667 20.3627 11.7565 20.3268 11.7477 20.2903C11.5697 19.5932 11.4607 18.8825 11.4215 18.1685C11.4154 18.0683 11.4113 17.9695 11.4086 17.8693C11.408 17.8443 11.4073 17.8199 11.4066 17.7949C11.4066 17.7861 11.4066 17.7773 11.4059 17.7685C11.4059 17.7475 11.4052 17.7265 11.4052 17.7062C11.3971 17.0842 11.4411 16.4609 11.5379 15.8457C11.5575 15.7171 11.5799 15.5905 11.6049 15.4626C11.611 15.4321 11.6164 15.4017 11.6225 15.3726C11.6415 15.2812 11.6611 15.1891 11.6827 15.0985C11.7579 14.7702 11.8479 14.4447 11.9541 14.1232C11.9602 14.1008 11.9677 14.0799 11.9758 14.0575C12.4976 12.5029 13.3775 11.0437 14.6154 9.8051C14.6749 9.74554 14.7352 9.68598 14.7968 9.62845C14.8414 9.58175 14.8868 9.53437 14.9328 9.48835L14.9741 9.44706C15.2678 9.15265 15.5737 8.87786 15.8898 8.6227C15.8946 8.62 15.9006 8.62406 15.8986 8.62879C15.8952 8.6403 15.8912 8.6518 15.8878 8.66399C15.3023 10.4481 15.1413 12.3411 15.4039 14.1861C15.4519 14.5238 15.5149 14.8629 15.5927 15.1966C15.8939 16.5157 16.4177 17.7942 17.1649 18.9712C17.4296 18.9333 17.6868 18.8744 17.9351 18.7952C19.2021 18.3945 20.2458 17.489 20.8292 16.3147C20.8542 16.2633 20.8793 16.2118 20.903 16.159C20.5064 15.4023 20.2032 14.6091 19.9954 13.7976C19.8255 13.1357 19.7186 12.4609 19.6746 11.7834C19.6719 11.7482 19.6705 11.711 19.6685 11.6751C19.6509 11.3645 19.6475 11.0525 19.6563 10.7425C19.7186 8.60849 20.4001 6.48938 21.7016 4.67823C21.7531 4.60649 21.8058 4.53475 21.86 4.463C22.1632 4.06233 22.4976 3.67722 22.8624 3.31242C23.2969 2.87791 23.7591 2.48671 24.2437 2.14085C24.6031 1.88367 24.974 1.65084 25.3551 1.44238C25.349 1.45389 25.3422 1.46607 25.3354 1.47758C24.4583 3.05388 23.9588 4.86909 23.9588 6.8014C23.9588 9.41051 24.8698 11.8071 26.3919 13.6893C26.4007 13.7042 26.4095 13.7191 26.419 13.734C26.4393 13.7672 26.4603 13.7997 26.482 13.8321C26.597 14.004 26.7236 14.1705 26.8623 14.331C26.9375 14.4169 27.0153 14.5022 27.0972 14.5834C27.1682 14.6551 27.238 14.7255 27.307 14.7993C27.3185 14.8108 27.3307 14.8237 27.3422 14.8365C27.4627 14.9638 27.5791 15.0944 27.6914 15.2271C27.7557 15.3029 27.82 15.378 27.8809 15.4558C28.0095 15.6135 28.1327 15.7746 28.2498 15.9384C28.3642 16.0954 28.4725 16.2558 28.5767 16.4176C28.9029 16.9245 29.1831 17.4538 29.4166 17.9973C29.6278 18.4873 29.801 18.9874 29.9364 19.4964C29.9466 19.5323 29.956 19.5688 29.9648 19.6047C30.0203 19.8206 30.0684 20.0365 30.1104 20.2544C30.1665 20.5488 30.2112 20.8433 30.243 21.139C30.2647 21.3353 30.2809 21.5302 30.2911 21.7272C30.2972 21.8253 30.3012 21.9241 30.3039 22.0236V22.025C30.3053 22.05 30.306 22.0751 30.306 22.1001C30.3066 22.1292 30.308 22.159 30.3073 22.1894C30.3161 22.8108 30.2721 23.4334 30.1753 24.0493Z" fill="#333333" stroke="white" stroke-width="0.270726"/>
<path d="M40.1497 16.4423H40.1491C39.6597 17.3201 39.0431 18.1431 38.3007 18.8856C37.8614 18.4477 37.4222 18.0098 36.9829 17.5719C36.5355 17.1258 36.0875 16.6791 35.6394 16.2331C34.9173 15.5103 34.6486 14.4748 34.8801 13.5015C34.918 13.3425 34.9694 13.1848 35.0344 13.0304C35.1156 12.8382 35.1833 12.6413 35.2388 12.4409C35.4987 11.5049 35.4729 10.5052 35.1623 9.5814C35.0411 9.21998 34.8773 8.87074 34.6675 8.54113C34.4787 8.2386 34.2513 7.95366 33.9894 7.69105C33.7268 7.42913 33.4418 7.20239 33.14 7.01289C32.8104 6.80375 32.4604 6.63929 32.099 6.51814C31.4899 6.31374 30.8469 6.23252 30.2114 6.27584C29.8838 6.29817 29.5583 6.35367 29.2395 6.44166C28.8151 6.55874 28.4043 6.73404 28.0192 6.96822C27.6909 7.16652 27.3816 7.40747 27.098 7.69105C26.7353 8.05383 26.4409 8.45991 26.2168 8.8924C25.6043 10.0721 25.5069 11.4501 25.9245 12.6927C26.0402 13.0379 26.1959 13.3722 26.3921 13.689C24.87 11.8068 23.959 9.41016 23.959 6.80104C23.959 4.86874 24.4585 3.05353 25.3356 1.47723C25.3424 1.46572 25.3492 1.45354 25.3553 1.44203C26.9512 0.568264 28.7183 0.122244 30.4896 0.10194C30.5457 0.10194 30.6026 0.100586 30.6594 0.100586C30.6899 0.100586 30.7204 0.100586 30.7508 0.101263C33.5873 0.137134 36.413 1.26471 38.5403 3.48736C41.9467 7.04537 42.4455 12.3293 40.1497 16.4423Z" fill="url(#paint0_linear_47_545)" stroke="white" stroke-width="0.270726"/>
<path d="M17.8676 32.9937C17.8676 33.1331 17.8649 33.2718 17.8595 33.4092C17.8574 33.4668 17.8547 33.5243 17.8513 33.5818C17.7512 35.3618 17.2029 37.0207 16.3163 38.4488C14.6669 39.3158 12.8693 39.7361 11.0893 39.7361C8.07543 39.7368 5.11437 38.53 3.0176 36.2403C1.12726 34.1774 0.184454 31.5033 0.203405 28.8116C0.211527 27.5385 0.435552 26.2614 0.876158 25.0438C1.08259 24.4719 1.33707 23.9129 1.6396 23.3734C2.11337 22.5274 2.70626 21.7288 3.41692 21.0039L6.07341 23.6604C6.91469 24.5017 7.14007 25.766 6.67848 26.8631C6.59794 27.056 6.52958 27.2529 6.47341 27.4526C6.21419 28.39 6.24059 29.389 6.55124 30.3128C6.67172 30.6735 6.83686 31.0235 7.04532 31.3537C7.23482 31.6549 7.46156 31.9399 7.72416 32.2025C7.98609 32.4644 8.2717 32.6918 8.57356 32.8813C8.90317 33.0898 9.25241 33.2542 9.61383 33.3754C10.5377 33.686 11.5373 33.7124 12.474 33.4525C12.8693 33.3436 13.2517 33.1838 13.6138 32.974C13.9718 32.7663 14.3096 32.5091 14.6155 32.2025C14.6974 32.1206 14.7752 32.0366 14.8503 31.9507C15.1068 31.6563 15.3234 31.3361 15.4967 31.0011C16.1092 29.8221 16.206 28.4434 15.7891 27.2008C15.7552 27.1013 15.718 27.0018 15.6781 26.905C15.5738 26.6506 15.448 26.4035 15.2984 26.1666C15.3458 26.2208 15.3925 26.2749 15.4385 26.3298C15.4845 26.3846 15.5305 26.4401 15.5752 26.4956C15.7173 26.6715 15.8541 26.8523 15.984 27.0377C16.0158 27.0824 16.0469 27.127 16.0774 27.1717C16.1126 27.2238 16.1478 27.2759 16.1816 27.3287C16.2148 27.3788 16.2473 27.4296 16.2791 27.4803C16.2859 27.4905 16.2926 27.5006 16.2987 27.5115C16.3204 27.5453 16.3414 27.5798 16.3623 27.6143C16.384 27.6495 16.405 27.6847 16.426 27.7199C16.4375 27.7396 16.449 27.7585 16.4598 27.7775C16.4821 27.8147 16.5031 27.8519 16.5248 27.8898C16.5444 27.9243 16.5634 27.9588 16.5823 27.9934C16.5979 28.0211 16.6134 28.0495 16.6283 28.0773C16.6446 28.1064 16.6601 28.1355 16.675 28.1653C16.694 28.1998 16.7116 28.2336 16.7292 28.2681C16.7441 28.2966 16.7583 28.325 16.7725 28.3534C16.7928 28.3934 16.8124 28.4333 16.8314 28.4739C16.8598 28.5308 16.8869 28.5883 16.9133 28.6458C16.9275 28.6756 16.9417 28.706 16.9545 28.7365C16.9769 28.7846 16.9985 28.8333 17.0188 28.882C17.0236 28.8915 17.0276 28.901 17.031 28.9104C17.052 28.9578 17.0723 29.0059 17.0919 29.0546C17.1021 29.0783 17.1116 29.1027 17.121 29.1263C17.1434 29.1818 17.1657 29.2373 17.1867 29.2935C17.1881 29.2969 17.1894 29.301 17.1908 29.3044C17.209 29.3504 17.226 29.3971 17.2429 29.4445C17.2571 29.483 17.2713 29.5223 17.2848 29.5615C17.2923 29.5825 17.2997 29.6035 17.3065 29.6245C17.3234 29.6719 17.3397 29.7199 17.3545 29.768C17.362 29.7883 17.3681 29.8086 17.3742 29.8289C17.3897 29.8756 17.4046 29.923 17.4188 29.9703C17.4263 29.9947 17.4337 30.0191 17.4405 30.0434C17.454 30.0867 17.4662 30.1307 17.4784 30.1747C17.4852 30.1957 17.4906 30.2167 17.496 30.2377C17.5116 30.2925 17.5265 30.3473 17.54 30.4028C17.5413 30.4049 17.542 30.4076 17.542 30.4103C17.5596 30.4773 17.5759 30.545 17.5921 30.6126C17.5928 30.6126 17.5928 30.6147 17.5928 30.6153C17.609 30.6837 17.6239 30.7521 17.6388 30.8204C17.6408 30.8292 17.6429 30.838 17.6442 30.8468C17.6564 30.9057 17.6686 30.9646 17.6794 31.0235C17.6842 31.0458 17.6889 31.0675 17.6916 31.0898C17.7018 31.1399 17.7106 31.1906 17.7194 31.2407C17.7221 31.2536 17.7241 31.2664 17.7254 31.2793C17.7363 31.3409 17.7457 31.4025 17.7545 31.4641C17.7654 31.5358 17.7755 31.6082 17.7843 31.6806C17.7958 31.7686 17.806 31.8573 17.8148 31.946C17.8209 32.0028 17.8263 32.0597 17.8303 32.1172C17.8364 32.191 17.8419 32.2641 17.8466 32.3378C17.8479 32.3615 17.8493 32.3845 17.8507 32.4082C17.854 32.4617 17.8567 32.5152 17.8588 32.5686C17.8608 32.6079 17.8622 32.6478 17.8628 32.6877C17.8649 32.7372 17.8655 32.7866 17.8662 32.8366C17.8669 32.8888 17.8676 32.9409 17.8676 32.9937Z" fill="url(#paint1_linear_47_545)" stroke="white" stroke-width="0.270726"/>
<defs>
<linearGradient id="paint0_linear_47_545" x1="23.959" y1="18.2918" x2="41.5565" y2="0.694322" gradientUnits="userSpaceOnUse">
<stop stop-color="#333333"/>
<stop offset="1" stop-color="#555555"/>
</linearGradient>
<linearGradient id="paint1_linear_47_545" x1="0.203126" y1="39.144" x2="17.7508" y2="21.4799" gradientUnits="userSpaceOnUse">
<stop stop-color="#555555"/>
<stop offset="1" stop-color="#333333"/>
</linearGradient>
<clipPath id="clip0_47_545">
<rect width="41.7594" height="39.9997" fill="white"/>
</clipPath>
</defs>
</svg>
